<svg width="24" height="24" viewBox="0 0 24 24" fill="none" xmlns="http://www.w3.org/2000/svg">
<g id="attachment_24px">
<path id="icon/file/attachment_24px" d="M17.2524 16H6.67237C4.58237 16 2.72237 14.47 2.52237 12.39C2.29237 10.01 4.16237 8 6.50237 8H18.8624C20.1724 8 21.3624 8.94 21.4924 10.24C21.6424 11.74 20.4724 13 19.0024 13H8.50237C7.95237 13 7.50237 12.55 7.50237 12C7.50237 11.45 7.95237 11 8.50237 11H17.2524C17.6624 11 18.0024 10.66 18.0024 10.25C18.0024 9.84 17.6624 9.5 17.2524 9.5H8.64237C7.33237 9.5 6.14237 10.44 6.01237 11.74C5.86237 13.24 7.03237 14.5 8.50237 14.5H18.8324C20.9224 14.5 22.7824 12.97 22.9824 10.89C23.2124 8.5 21.3424 6.5 19.0024 6.5H6.73237C3.86237 6.5 1.29237 8.6 1.02237 11.46C0.722372 14.75 3.28237 17.5 6.50237 17.5H17.2524C17.6624 17.5 18.0024 17.16 18.0024 16.75C18.0024 16.34 17.6624 16 17.2524 16Z" fill="white"/>
</g>
</svg>
